<?xml version="1.0" standalone="no"?><!-- Generator: Gravit.io --><svg xmlns="http://www.w3.org/2000/svg" xmlns:xlink="http://www.w3.org/1999/xlink" style="isolation:isolate" viewBox="3.99 2.5 93.019 30" width="93.019" height="30"><path d=" M 92.092 16.706 L 92.092 16.706 L 92.092 16.706 Q 91.301 16.706 90.679 17.229 L 90.679 17.229 L 90.679 17.229 Q 90.057 17.752 90.057 18.712 L 90.057 18.712 L 90.057 18.712 Q 90.057 19.673 90.722 20.521 L 90.722 20.521 L 90.722 20.521 Q 91.386 21.369 92.347 22.005 L 92.347 22.005 L 92.347 22.005 Q 93.307 22.641 94.282 23.305 L 94.282 23.305 L 94.282 23.305 Q 95.257 23.969 95.992 24.944 L 95.992 24.944 L 95.992 24.944 Q 96.727 25.919 96.812 27.106 L 96.812 27.106 L 96.812 27.106 Q 96.812 29.141 95.06 30.525 L 95.06 30.525 L 95.06 30.525 Q 93.307 31.91 90.707 31.91 L 90.707 31.91 L 90.707 31.91 Q 88.107 31.91 86.624 30.865 L 86.624 30.865 L 86.624 30.865 Q 85.14 29.819 85.14 28.462 L 85.14 28.462 L 85.14 28.462 Q 85.14 27.106 85.974 26.272 L 85.974 26.272 L 85.974 26.272 Q 86.807 25.439 88.051 25.439 L 88.051 25.439 L 88.051 25.439 Q 88.701 25.439 89.266 25.665 L 89.266 25.665 L 89.266 25.665 Q 88.362 26.625 88.362 27.699 L 88.362 27.699 L 88.362 27.699 Q 88.362 28.773 88.955 29.423 L 88.955 29.423 L 88.955 29.423 Q 89.549 30.073 90.566 30.073 L 90.566 30.073 L 90.566 30.073 Q 91.584 30.073 92.276 29.55 L 92.276 29.55 L 92.276 29.55 Q 92.968 29.028 92.968 28.194 L 92.968 28.194 L 92.968 28.194 Q 92.968 27.36 92.488 26.71 L 92.488 26.71 L 92.488 26.71 Q 92.007 26.06 91.287 25.566 L 91.287 25.566 L 91.287 25.566 Q 90.566 25.071 89.718 24.449 L 89.718 24.449 L 89.718 24.449 Q 88.87 23.828 88.15 23.192 L 88.15 23.192 L 88.15 23.192 Q 87.429 22.556 86.949 21.581 L 86.949 21.581 L 86.949 21.581 Q 86.468 20.606 86.468 19.447 L 86.468 19.447 L 86.468 19.447 Q 86.468 17.441 88.122 16.155 L 88.122 16.155 L 88.122 16.155 Q 89.775 14.869 92.248 14.869 L 92.248 14.869 L 92.248 14.869 Q 94.72 14.869 95.865 15.83 L 95.865 15.83 L 95.865 15.83 Q 97.01 16.791 97.01 18.077 L 97.01 18.077 L 97.01 18.077 Q 97.01 19.362 96.204 20.267 L 96.204 20.267 L 96.204 20.267 Q 95.399 21.171 94.127 21.171 L 94.127 21.171 L 94.127 21.171 Q 93.505 21.171 92.714 20.917 L 92.714 20.917 L 92.714 20.917 Q 93.336 20.38 93.675 19.687 L 93.675 19.687 L 93.675 19.687 Q 94.014 18.995 94.014 18.317 L 94.014 18.317 L 94.014 18.317 Q 94.014 17.639 93.449 17.172 L 93.449 17.172 L 93.449 17.172 Q 92.884 16.706 92.092 16.706 Z  M 71.857 25.636 L 71.857 25.636 L 71.857 25.636 Q 71.857 28.999 73.892 28.999 L 73.892 28.999 L 73.892 28.999 Q 74.966 28.999 75.984 27.841 L 75.984 27.841 L 75.984 27.841 Q 77.001 26.682 77.637 24.732 L 77.637 24.732 L 77.637 24.732 Q 78.273 22.782 78.739 20.564 L 78.739 20.564 L 78.739 20.564 Q 79.205 18.345 79.431 15.858 L 79.431 15.858 L 79.431 15.858 Q 79.827 11.054 79.827 8.355 L 79.827 8.355 L 79.827 8.355 Q 79.827 5.656 79.601 4.299 L 79.601 4.299 L 79.601 4.299 Q 81.636 4.752 82.455 6.221 L 82.455 6.221 L 82.455 6.221 Q 83.275 7.691 83.275 9.923 L 83.275 9.923 L 83.275 9.923 Q 83.275 12.156 82.328 18.232 L 82.328 18.232 L 82.328 18.232 Q 81.381 24.308 81.381 27.106 L 81.381 27.106 L 81.381 27.106 Q 81.381 29.904 81.636 31.854 L 81.636 31.854 L 81.636 31.854 Q 79.629 31.317 78.88 29.918 L 78.88 29.918 L 78.88 29.918 Q 78.131 28.519 78.131 26.399 L 78.131 26.399 L 78.131 26.399 Q 77.255 28.83 75.503 30.243 L 75.503 30.243 L 75.503 30.243 Q 73.751 31.656 71.886 31.656 L 71.886 31.656 L 71.886 31.656 Q 70.02 31.656 68.848 30.229 L 68.848 30.229 L 68.848 30.229 Q 67.675 28.802 67.675 26.032 L 67.675 26.032 L 67.675 26.032 Q 67.675 21.652 70.077 18.5 L 70.077 18.5 L 70.077 18.5 Q 72.479 15.349 75.757 15.349 L 75.757 15.349 L 75.757 15.349 Q 76.69 15.349 78.697 15.802 L 78.697 15.802 L 78.697 15.802 Q 76.944 16.254 75.574 17.37 L 75.574 17.37 L 75.574 17.37 Q 74.203 18.486 73.44 19.928 L 73.44 19.928 L 73.44 19.928 Q 71.857 22.782 71.857 25.636 Z  M 59.705 22.16 L 59.705 22.16 L 59.705 22.16 Q 60.723 18.486 62.15 16.748 L 62.15 16.748 L 62.15 16.748 Q 63.577 15.01 64.806 15.01 L 64.806 15.01 L 64.806 15.01 Q 66.036 15.01 66.657 15.929 L 66.657 15.929 L 66.657 15.929 Q 67.279 16.847 67.279 18.303 L 67.279 18.303 L 67.279 18.303 Q 67.279 19.758 66.417 20.973 L 66.417 20.973 L 66.417 20.973 Q 65.555 22.189 64.057 22.189 L 64.057 22.189 L 64.057 22.189 Q 63.662 22.189 63.125 21.962 L 63.125 21.962 L 63.125 21.962 Q 64.001 20.86 64.001 19.306 L 64.001 19.306 L 64.001 19.306 Q 64.001 18.402 63.266 18.402 L 63.266 18.402 L 63.266 18.402 Q 62.729 18.402 62.107 19.15 L 62.107 19.15 L 62.107 19.15 Q 61.486 19.899 60.92 21.214 L 60.92 21.214 L 60.92 21.214 Q 60.355 22.528 59.974 24.577 L 59.974 24.577 L 59.974 24.577 Q 59.592 26.625 59.592 28.943 L 59.592 28.943 L 59.592 28.943 Q 59.592 29.225 59.734 31.345 L 59.734 31.345 L 59.734 31.345 Q 58.829 31.402 58.575 31.402 L 58.575 31.402 L 58.575 31.402 Q 56.964 31.402 56.257 30.836 L 56.257 30.836 L 56.257 30.836 Q 55.551 30.271 55.551 28.971 L 55.551 28.971 L 55.551 28.971 Q 55.551 28.406 56.144 24.619 L 56.144 24.619 L 56.144 24.619 Q 56.738 20.832 56.738 18.585 L 56.738 18.585 L 56.738 18.585 Q 56.738 16.339 56.257 14.445 L 56.257 14.445 L 56.257 14.445 Q 58.32 15.095 59.14 16.296 L 59.14 16.296 L 59.14 16.296 Q 59.96 17.497 59.96 19.094 L 59.96 19.094 L 59.96 19.094 Q 59.96 20.691 59.705 22.16 Z  M 40.884 26.004 L 40.884 26.004 L 40.884 26.004 Q 40.884 27.332 41.378 28.166 L 41.378 28.166 L 41.378 28.166 Q 41.873 28.999 42.777 28.999 L 42.777 28.999 L 42.777 28.999 Q 44.105 28.999 45.306 27.445 L 45.306 27.445 L 45.306 27.445 Q 46.507 25.891 47.228 23.46 L 47.228 23.46 L 47.228 23.46 Q 47.949 21.03 47.949 18.84 L 47.949 18.84 L 47.949 18.84 Q 47.949 16.649 47.779 15.293 L 47.779 15.293 L 47.779 15.293 Q 48.627 15.236 48.966 15.236 L 48.966 15.236 L 48.966 15.236 Q 50.407 15.236 51.142 15.773 L 51.142 15.773 L 51.142 15.773 Q 51.877 16.31 51.877 17.695 L 51.877 17.695 L 51.877 17.695 Q 51.877 18.232 51.199 22.061 L 51.199 22.061 L 51.199 22.061 Q 50.52 25.891 50.52 28.194 L 50.52 28.194 L 50.52 28.194 Q 50.52 30.497 51.397 32.278 L 51.397 32.278 L 51.397 32.278 Q 49.277 31.91 48.288 30.709 L 48.288 30.709 L 48.288 30.709 Q 47.299 29.508 47.299 27.247 L 47.299 27.247 L 47.299 27.247 Q 47.299 26.852 47.412 25.721 L 47.412 25.721 L 47.412 25.721 Q 46.649 28.406 44.699 30.045 L 44.699 30.045 L 44.699 30.045 Q 42.749 31.684 40.869 31.684 L 40.869 31.684 L 40.869 31.684 Q 38.99 31.684 37.845 30.285 L 37.845 30.285 L 37.845 30.285 Q 36.701 28.886 36.701 26.315 L 36.701 26.315 L 36.701 26.315 Q 36.701 23.743 37.619 21.327 L 37.619 21.327 L 37.619 21.327 Q 38.538 18.91 40.375 17.229 L 40.375 17.229 L 40.375 17.229 Q 42.212 15.547 44.473 15.547 L 44.473 15.547 L 44.473 15.547 Q 45.773 15.547 47.129 16.169 L 47.129 16.169 L 47.129 16.169 Q 44.275 17.186 42.579 20.168 L 42.579 20.168 L 42.579 20.168 Q 40.884 23.149 40.884 26.004 Z  M 10.99 2.5 L 33.99 2.5 L 33.99 25.5 C 33.99 29.363 30.854 32.5 26.99 32.5 L 3.99 32.5 L 3.99 9.5 C 3.99 5.637 7.127 2.5 10.99 2.5 Z  M 25.414 23.646 Q 26.476 23.876 26.476 24.708 Q 25.385 26.688 23.807 27.922 Q 22.229 29.156 20.823 29.558 Q 19.417 29.959 17.925 29.959 Q 14.538 29.959 12.243 27.377 Q 9.947 24.794 9.947 19.858 Q 9.947 14.349 12.788 10.475 Q 14.194 8.61 16.389 7.505 Q 18.585 6.4 21.468 6.4 Q 24.352 6.4 25.859 7.935 Q 27.365 9.471 27.365 11.551 Q 27.365 13.631 26.218 14.937 Q 25.07 16.243 23.233 16.243 Q 22.602 16.243 21.77 16.013 Q 22.372 15.267 22.831 13.89 Q 23.291 12.512 23.291 11.278 Q 23.291 10.045 22.717 9.27 Q 22.143 8.495 20.909 8.495 Q 19.015 8.495 17.494 10.245 Q 15.973 11.996 15.227 14.55 Q 14.481 17.104 14.481 19.83 Q 14.481 23.503 15.916 25.397 Q 17.351 27.291 19.589 27.291 Q 20.995 27.291 22.516 26.344 Q 24.037 25.397 25.414 23.646 Z " fill-rule="evenodd" fill="rgb(233,236,239)"/></svg>
